<svg width="28" height="28" viewBox="0 0 28 28" fill="none" xmlns="http://www.w3.org/2000/svg">
<g clip-path="url(#clip0_31_4889)">
<path d="M0.149902 11.971C0.149902 11.9548 0.149902 11.9223 0.166119 11.9061C0.149902 11.9223 0.149902 11.9385 0.149902 11.971Z" fill="black"/>
<path d="M0.0874023 12.4444C0.0874023 12.4282 0.0874023 12.412 0.0874023 12.3958C0.103619 12.412 0.0874023 12.4282 0.0874023 12.4444Z" fill="black"/>
<path d="M0.041119 12.9794V12.9631C0.041119 12.9631 0.041119 12.9631 0.041119 12.9794C0.041119 13.028 0.0249023 13.0929 0.0249023 13.1415C0.041119 13.0767 0.041119 13.028 0.041119 12.9794Z" fill="black"/>
<path d="M7.31641 18.7024C7.31641 18.7174 7.33141 18.7324 7.33141 18.7324C7.31641 18.7324 7.31641 18.7174 7.31641 18.7024Z" fill="black"/>
<path d="M9.43115 6.09875C10.6316 4.81717 12.0916 3.81138 13.7463 3.1787C14.2492 2.98403 14.7521 2.82181 15.2712 2.70825C14.7521 2.83803 14.2492 2.98403 13.7463 3.1787C12.0754 3.8276 10.6154 4.81717 9.43115 6.09875Z" fill="black"/>
<path d="M11.9164 23.9272C10.5375 23.0999 9.33705 21.9805 8.39614 20.634C8.05547 20.1474 7.76347 19.6445 7.50391 19.1091C7.76347 19.6283 8.05547 20.1474 8.39614 20.634C9.33705 21.9643 10.5375 23.0836 11.9164 23.9272Z" fill="black"/>
<path d="M0.166619 11.859V11.8914C0.166619 11.9077 0.166619 11.9401 0.150397 11.9563V11.9725C0.150397 11.9888 0.150397 12.005 0.150397 12.0212V12.0537V12.0699V12.0861V12.1023C0.150397 12.151 0.134174 12.1997 0.134174 12.2483C0.134174 12.297 0.117952 12.3294 0.117952 12.3781C0.117952 12.3943 0.117952 12.4106 0.117952 12.4268C0.117952 12.4754 0.101729 12.5241 0.101729 12.5728C0.101729 12.6052 0.101729 12.6539 0.0855069 12.6863V12.7188C0.0855069 12.735 0.0855069 12.7512 0.0855069 12.7674C0.0855069 12.7837 0.0855069 12.7999 0.0855069 12.8161C0.0855069 12.8323 0.0855069 12.8323 0.0855069 12.8486C0.0855069 12.8648 0.0855069 12.8648 0.0855069 12.881C0.0855069 12.8972 0.0855069 12.9134 0.0855069 12.9297V12.9459C0.0855069 12.9946 0.0692845 13.0595 0.0692845 13.1081C0.0692845 13.1406 0.0692845 13.1568 0.0692845 13.1892C0.0692845 13.2217 0.0692845 13.2379 0.0692845 13.2703C0.0692845 13.2703 0.0692845 13.2703 0.0692845 13.2866V13.3028V13.319V13.3352C0.0692845 13.3677 0.0692845 13.4001 0.0692845 13.4326C0.0692845 13.4488 0.0692845 13.465 0.0692845 13.465C0.0692845 13.5299 0.0692845 13.5786 0.0692845 13.6272C0.0692845 13.6435 0.0692845 13.6435 0.0692845 13.6597V13.6759C0.0692845 13.7246 0.0692845 13.7732 0.0692845 13.8057V13.8381V13.8544V13.903C0.00439453 13.9517 0.00439453 13.9517 0.00439453 13.9679C0.00439453 13.9841 0.00439453 13.9841 0.00439453 14.0004C0.00439453 14.0166 0.00439453 14.0166 0.00439453 14.0328C0.00439453 14.049 0.00439453 14.0652 0.00439453 14.0652V14.1139V14.1464C0.0368395 16.8068 1.10752 19.3051 3.00555 21.1707C4.90358 23.0363 7.41807 24.0745 10.0948 24.0745C10.5166 24.0745 10.9383 24.0421 11.3601 23.9934C11.5548 23.9772 11.7332 23.9447 11.9279 23.9123C10.549 23.0849 9.34854 21.9656 8.40764 20.6191C8.06697 20.1325 7.77496 19.6296 7.5154 19.0942C7.45051 18.9807 7.40185 18.8509 7.35318 18.7373C7.35318 18.7211 7.33696 18.7049 7.33696 18.7049C6.68806 17.2286 6.34738 15.6388 6.34738 14.0004C6.34738 11.6156 7.06117 9.32828 8.42386 7.36536C8.73209 6.91113 9.07276 6.48935 9.44588 6.10001C10.6463 4.81843 12.1064 3.81264 13.7611 3.17996C14.264 2.98529 14.7669 2.82307 15.286 2.70951C16.1458 2.49862 17.038 2.40128 17.9465 2.40128C20.0554 2.40128 22.0832 2.96907 23.8514 4.00731C23.8352 3.99108 23.819 3.97486 23.8028 3.95864C23.7866 3.94242 23.7541 3.90997 23.7379 3.89375L23.7217 3.87753C23.7054 3.8613 23.673 3.84508 23.6568 3.81264C23.6405 3.79641 23.6081 3.78019 23.5919 3.74775C23.5919 3.74775 23.5919 3.74775 23.5757 3.73152C23.5432 3.7153 23.527 3.68286 23.4945 3.66663L23.4621 3.63419L23.4459 3.61797C23.4134 3.58552 23.381 3.55308 23.3323 3.52063C23.2837 3.48819 23.2512 3.45574 23.2188 3.4233C23.2025 3.40707 23.1863 3.40707 23.1863 3.39085C23.1539 3.37463 23.1376 3.34218 23.1052 3.32596L23.0565 3.27729L23.0241 3.24485L23.0079 3.22863L22.9916 3.2124C22.9592 3.17996 22.9268 3.16374 22.8943 3.13129C22.8781 3.11507 22.8456 3.09885 22.8294 3.0664C22.7483 3.00151 22.6672 2.93662 22.6023 2.88795C22.5861 2.87173 22.5536 2.85551 22.5374 2.83929L22.505 2.82306L22.4888 2.80684C22.4888 2.80684 22.4888 2.80684 22.4725 2.80684L22.4239 2.7744L22.4076 2.75817L22.3427 2.70951L22.3265 2.69329C22.3103 2.67706 22.3103 2.67706 22.2941 2.66084L22.2779 2.64462C22.2616 2.6284 22.2292 2.61217 22.213 2.59595L22.1967 2.57973C22.1319 2.53106 22.0832 2.49862 22.0183 2.44995C21.9859 2.43373 21.9696 2.4175 21.9372 2.40128L21.921 2.38506C21.8885 2.35261 21.8399 2.33639 21.8074 2.30395C21.7912 2.30395 21.7912 2.28772 21.775 2.28772C21.7425 2.2715 21.7101 2.25528 21.6938 2.23906C21.6452 2.20661 21.6127 2.19039 21.5641 2.15794C21.5154 2.1255 21.483 2.10928 21.4343 2.07683L21.3694 2.02816C21.3532 2.02816 21.3532 2.01194 21.337 2.01194C21.3207 2.01194 21.3045 1.99572 21.2883 1.99572C21.2721 1.99572 21.2721 1.9795 21.2558 1.9795C21.2234 1.96327 21.191 1.94705 21.1585 1.93083L21.1423 1.91461C21.1261 1.91461 21.1261 1.89838 21.1098 1.89838C21.0774 1.88216 21.045 1.86594 21.0287 1.84972C21.0287 1.84972 21.0287 1.84972 21.0125 1.84972C20.8178 1.73616 20.6069 1.63882 20.4123 1.52527H20.3961C20.3474 1.50904 20.2987 1.4766 20.2663 1.46038L19.958 1.3306C19.958 1.3306 19.958 1.3306 19.9418 1.3306C19.7958 1.26571 19.666 1.20082 19.5363 1.15215C19.5038 1.13593 19.4714 1.1197 19.4389 1.1197H19.4227H19.4065L19.3578 1.10348C19.3416 1.10348 19.3254 1.08726 19.2929 1.08726C19.2767 1.08726 19.2767 1.08726 19.2605 1.07104C19.1307 1.02237 19.0171 0.973702 18.9198 0.941257L18.8549 0.925035H18.8387L18.7738 0.908812C18.5954 0.843922 18.4331 0.779032 18.2385 0.730365C18.2385 0.730365 18.2385 0.730365 18.2222 0.730365C18.1898 0.714142 18.1573 0.714143 18.1249 0.69792C18.0925 0.681697 18.06 0.681697 18.0276 0.665475C18.0113 0.665475 17.9789 0.649253 17.9627 0.649253C17.8816 0.63303 17.8167 0.600585 17.7356 0.584363C17.7193 0.584363 17.7193 0.584363 17.7031 0.584363C17.7031 0.487028 17.6869 0.487028 17.6707 0.487028H17.6545H17.6382C17.4922 0.454583 17.3462 0.405915 17.184 0.37347C17.1029 0.357248 17.0056 0.341025 16.9244 0.30858C16.7784 0.276136 16.6162 0.243691 16.4702 0.211246C16.4215 0.195023 16.3567 0.195023 16.308 0.178801C16.2593 0.162578 16.1944 0.162578 16.1458 0.146356C16.1133 0.146356 16.0971 0.146356 16.0646 0.130133C16.0322 0.130133 15.9998 0.113911 15.9673 0.113911C15.8051 0.0976882 15.6429 0.0652433 15.4806 0.0490208C15.1724 0.0165758 14.848 0.00035334 14.5397 -0.0158691C14.3613 0.00035334 14.1828 0.00035334 14.0044 0.00035334C13.7124 0.00035334 13.4042 0.0165758 13.1122 0.0327983C13.0797 0.0327983 13.0473 0.0327983 13.0148 0.0327983C12.6904 0.0490208 12.3659 0.0814657 12.0415 0.130133C11.9766 0.146356 11.9279 0.146356 11.863 0.162578L0.166619 11.859Z" fill="#8204FF"/>
<path d="M27.8443 16.1258V16.1096C27.8443 16.0934 27.8443 16.0772 27.8605 16.0447V16.0285C27.8605 15.996 27.8767 15.9798 27.8767 15.9474V15.9311V15.9149C27.8767 15.8987 27.8767 15.8987 27.8767 15.8987L27.8929 15.8176L27.9092 15.7527C27.9092 15.6878 27.9254 15.6391 27.9254 15.5905C27.9254 15.5418 27.9416 15.4931 27.9416 15.4445C27.9416 15.3958 27.9578 15.3634 27.9578 15.3309V15.2985C27.9578 15.266 27.9578 15.2498 27.9578 15.2174V15.2011V15.1849C27.9578 15.1525 27.9578 15.12 27.974 15.0714V15.0551C27.974 15.0065 27.9903 14.9578 27.9903 14.8929C27.9903 14.8442 27.9903 14.7794 28.0065 14.7307V14.7145V14.6982V14.682C28.0065 14.6334 28.0065 14.5847 28.0065 14.5522C28.0065 14.4873 28.0065 14.4387 28.0065 14.3738V14.3413C28.0065 14.2927 28.0065 14.2602 28.0065 14.2116V14.1142C28.0065 14.0818 28.0065 14.0493 28.0065 14.0007C28.0065 13.9682 28.0065 13.9196 28.0065 13.8871V13.8547C27.9741 11.1942 26.9034 8.69592 25.0053 6.83034C23.1073 4.96475 20.5928 3.92651 17.9161 3.92651C17.2997 3.92651 16.6832 3.97518 16.0992 4.08874C17.4781 4.91609 18.6786 6.03544 19.6195 7.3819C20.9822 9.3286 21.6959 11.616 21.6959 14.0169C21.6959 16.4016 20.9822 18.689 19.6195 20.6519C18.2892 22.5499 16.4399 24.0099 14.2823 24.8373C12.952 25.3564 11.5407 25.616 10.0969 25.616C7.98796 25.616 5.96014 25.0482 4.19189 24.0099H4.20812C4.22434 24.0262 4.22434 24.0262 4.24056 24.0424L4.27301 24.0748C4.28923 24.0911 4.32167 24.1235 4.3379 24.1397C4.37034 24.1722 4.41901 24.2208 4.46768 24.2533C4.50012 24.2857 4.53257 24.302 4.54879 24.3344C4.59746 24.3831 4.64612 24.4317 4.71101 24.4804C4.74346 24.5128 4.7759 24.5453 4.80835 24.5777L4.82457 24.594L4.92191 24.6751L4.93813 24.6913C4.97057 24.7075 4.9868 24.74 5.01924 24.7562L5.03546 24.7724L5.05169 24.7886C5.06791 24.8048 5.10035 24.8373 5.1328 24.8535H5.14902H5.16524C5.18147 24.8697 5.21391 24.886 5.23013 24.9022C5.31125 24.9671 5.37614 25.0157 5.45725 25.0806C5.47347 25.0969 5.48969 25.1131 5.50592 25.1131C5.52214 25.1293 5.53836 25.1455 5.57081 25.1617C5.58703 25.178 5.58703 25.178 5.60325 25.178L5.61947 25.1942C5.65192 25.2104 5.68436 25.2429 5.71681 25.2591L5.74925 25.2753C5.76548 25.2915 5.7817 25.2915 5.79792 25.3077C5.81414 25.324 5.84659 25.3402 5.86281 25.3564L5.89525 25.3726C5.96014 25.4213 6.00881 25.4537 6.0737 25.5024C6.10615 25.5186 6.12237 25.5349 6.15481 25.5511L6.17104 25.5673L6.23593 25.616L6.30082 25.6646C6.33326 25.6809 6.36571 25.7133 6.41437 25.7295C6.44682 25.7458 6.49549 25.7782 6.52793 25.7944H6.65771L6.81994 25.9404C6.83616 25.9566 6.8686 25.9729 6.90105 25.9891C6.94972 26.0215 6.99838 26.054 7.04705 26.0702C7.0795 26.0864 7.12816 26.1189 7.16061 26.1351C7.3715 26.2486 7.58239 26.3622 7.79329 26.4595C7.84195 26.4758 7.89062 26.5082 7.93929 26.5244C7.93929 26.5244 7.95551 26.5244 7.95551 26.5407C8.00418 26.5569 8.03662 26.5893 8.08529 26.6055C8.21507 26.6704 8.34485 26.7353 8.49085 26.784C8.5233 26.8002 8.55574 26.8164 8.58819 26.8327C8.60441 26.8327 8.60441 26.8489 8.62063 26.8489C8.6693 26.8651 8.70174 26.8813 8.75041 26.8975C8.86397 26.9462 8.97753 26.9787 9.09108 27.0273C9.12353 27.0436 9.1722 27.0598 9.20464 27.076C9.38309 27.1409 9.56154 27.2058 9.72376 27.2544C9.75621 27.2707 9.78865 27.2707 9.82109 27.2869C9.86976 27.3031 9.91843 27.3193 9.98332 27.3356L10.032 27.3518C10.0969 27.368 10.1618 27.3842 10.2104 27.4004C10.2429 27.4167 10.2753 27.4167 10.3078 27.4329C10.6971 27.5302 11.0864 27.6276 11.4758 27.6924C11.5245 27.7087 11.5731 27.7087 11.638 27.7249C11.7029 27.7411 11.7516 27.7411 11.8002 27.7573C11.8489 27.7736 11.9138 27.7736 11.9625 27.7736C12.6114 27.8709 13.2603 27.9033 13.9254 27.9033C14.5743 27.9033 15.2394 27.8547 15.8883 27.7736H15.9045C15.9532 27.7736 16.0019 27.7573 16.0667 27.7573L27.7632 16.0609C27.8443 16.1258 27.8443 16.1258 27.8443 16.1258Z" fill="#8204FF"/>
</g>
<defs>
<clipPath id="clip0_31_4889">
<rect width="28" height="28" fill="white"/>
</clipPath>
</defs>
</svg>
